<?xml version="1.0" standalone="no"?><!DOCTYPE svg PUBLIC "-//W3C//DTD SVG 1.1//EN" "http://www.w3.org/Graphics/SVG/1.1/DTD/svg11.dtd"><svg t="1703911127681" class="icon" viewBox="0 0 1024 1024" version="1.1" xmlns="http://www.w3.org/2000/svg" p-id="11230" width="128" height="128" xmlns:xlink="http://www.w3.org/1999/xlink"><path d="M601.088 702.464c-79.872 0-144.384-64.512-144.384-144.384s64.512-144.384 144.384-144.384 144.384 64.512 144.384 144.384-65.536 144.384-144.384 144.384z m0-227.328c-46.08 0-82.944 36.864-82.944 82.944s36.864 82.944 82.944 82.944 82.944-36.864 82.944-82.944-37.888-82.944-82.944-82.944z" fill="#63F7DE" p-id="11231"></path><path d="M887.808 858.112H136.192l-40.96-40.96V314.368l40.96-40.96h272.384l52.224-87.04 34.816-20.48h191.488l34.816 20.48 52.224 87.04h113.664l40.96 40.96v502.784l-40.96 40.96z m-710.656-81.92h669.696V355.328h-96.256l-34.816-20.48-52.224-87.04H519.168l-52.224 87.04-34.816 20.48H177.152v420.864z" fill="#437DFF" p-id="11232"></path><path d="M203.776 196.608h102.4v61.44h-102.4z" fill="#437DFF" p-id="11233"></path></svg>