<?xml version="1.0" standalone="no"?><!DOCTYPE svg PUBLIC "-//W3C//DTD SVG 1.1//EN" "http://www.w3.org/Graphics/SVG/1.1/DTD/svg11.dtd"><svg t="1703895903351" class="icon" viewBox="0 0 1024 1024" version="1.1" xmlns="http://www.w3.org/2000/svg" p-id="8799" width="32" height="32" xmlns:xlink="http://www.w3.org/1999/xlink"><path d="M640 554.666667c-4.266667 72.533333-59.733333 128-128 128s-123.733333-55.466667-128-128h256z m-256-4.266667v-76.8 76.8zM213.333333 426.666667V213.333333h213.333334v85.333334H298.666667v128H213.333333z m0 170.666666h85.333334v128h128v85.333334H213.333333v-213.333334z m597.333334-170.666666h-85.333334V298.666667h-128V213.333333h213.333334v213.333334z m0 170.666666v213.333334h-213.333334v-85.333334h128v-128h85.333334z m-341.333334-213.333333v85.333333H384V384h85.333333z m170.666667 0v85.333333h-85.333333V384h85.333333z" fill="#000000" p-id="8800"></path></svg>