<?xml version="1.0" standalone="no"?><!DOCTYPE svg PUBLIC "-//W3C//DTD SVG 1.1//EN" "http://www.w3.org/Graphics/SVG/1.1/DTD/svg11.dtd"><svg t="1703911255920" class="icon" viewBox="0 0 1024 1024" version="1.1" xmlns="http://www.w3.org/2000/svg" p-id="13858" xmlns:xlink="http://www.w3.org/1999/xlink" width="128" height="128"><path d="M811.2128 868.7104H219.4432c-80.896 0-146.432-65.5872-146.432-146.432V286.208c0-80.896 65.5872-146.432 146.432-146.432h591.7696c80.896 0 146.432 65.5872 146.432 146.432v436.0192c0.0512 80.896-65.536 146.4832-146.432 146.4832z" fill="#7518ED" p-id="13859"></path><path d="M785.664 868.7104H205.0048c-72.9088 0-132.0448-59.136-132.0448-132.0448V312.9856c0-72.9088 59.136-132.0448 132.0448-132.0448h580.6592c72.9088 0 132.0448 59.136 132.0448 132.0448v423.68c0 72.9088-59.0848 132.0448-132.0448 132.0448z" fill="#9539FC" p-id="13860"></path><path d="M268.6464 369.7664m-88.2176 0a88.2176 88.2176 0 1 0 176.4352 0 88.2176 88.2176 0 1 0-176.4352 0Z" fill="#7518ED" p-id="13861"></path><path d="M268.6464 352.768m-82.4832 0a82.4832 82.4832 0 1 0 164.9664 0 82.4832 82.4832 0 1 0-164.9664 0Z" fill="#FFFFFF" p-id="13862"></path><path d="M701.2352 386.1504c-26.0608-23.296-65.9456-23.4496-92.16-0.3584l-170.752 150.3744c-17.2032 15.1552-43.52 14.2848-59.6992-1.8944l-25.6512-25.7024c-15.4112-15.4112-40.2432-16.9984-57.5488-3.6352L72.96 676.864v57.3952c0 2.3552 0.0512 4.6592 0.1536 6.9632 20.3776 49.2544 69.7856 84.0192 127.488 84.0192H790.016c57.7024 0 107.1104-34.7648 127.488-84.0192 0.1024-2.304 0.1536-4.608 0.1536-6.9632v-154.5216l-216.4224-193.5872z" fill="#FF9100" p-id="13863"></path><path d="M917.7088 632.0128l-221.184-202.4448c-25.4464-23.296-64.4096-23.4496-90.0608-0.3584L439.6032 579.584c-16.7936 15.1552-42.5472 14.2848-58.3168-1.8944l-25.088-25.7024a42.15808 42.15808 0 0 0-56.2688-3.6352l-226.9696 179.5584v6.4512c0 74.1888 60.16 134.3488 134.3488 134.3488H783.36c74.1888 0 134.3488-60.16 134.3488-134.3488v-102.3488z" fill="#F6E937" p-id="13864"></path></svg>